<svg width="11" height="14" viewBox="0 0 11 14" fill="none" xmlns="http://www.w3.org/2000/svg">
<path d="M5.50448 14C5.98709 13.9955 6.4485 13.7986 6.78874 13.4521L10.7332 9.46857C10.9041 9.29459 11 9.05924 11 8.81393C11 8.56861 10.9041 8.33327 10.7332 8.15929C10.648 8.07225 10.5465 8.00317 10.4347 7.95603C10.3229 7.90889 10.203 7.88462 10.0819 7.88462C9.96085 7.88462 9.84095 7.90889 9.72916 7.95603C9.61738 8.00317 9.51592 8.07225 9.43064 8.15929L6.42181 11.2143L6.42181 0.928571C6.42181 0.682299 6.32516 0.446113 6.15313 0.271972C5.9811 0.0978313 5.74777 -2.29582e-07 5.50448 -2.40217e-07C5.26119 -2.50851e-07 5.02787 0.0978313 4.85583 0.271972C4.6838 0.446113 4.58715 0.682299 4.58715 0.928571L4.58715 11.2143L1.56915 8.15929C1.39763 7.98443 1.16451 7.88571 0.921088 7.88484C0.677662 7.88397 0.443864 7.98102 0.271128 8.15464C0.0983921 8.32827 0.000865509 8.56424 5.33692e-06 8.81065C-0.000854835 9.05705 0.0950223 9.29372 0.266542 9.46857L4.21105 13.4521C4.55353 13.8009 5.01869 13.9979 5.50448 14Z" fill="#4DF168"/>
</svg>
